C:\Users\movea\Dropbox\PhDWork\ExperimentalData\subject7\100\P7S100W01_filtered35.mot
nRows=15
nColumns=28

name C:\Users\movea\Dropbox\PhDWork\ExperimentalData\subject7\100\P7S100W01_filtered35.mot
datacolumns 28
datarows 15
range 0.6170000000 0.6310000000
endheader
time	ground_force_1_vx	ground_force_1_vy	ground_force_1_vz	ground_force_1_px	ground_force_1_py	ground_force_1_pz	ground_moment_1_mx	ground_moment_1_my	ground_moment_1_mz	ground_force_2_vx	ground_force_2_vy	ground_force_2_vz	ground_force_2_px	ground_force_2_py	ground_force_2_pz	ground_moment_2_mx	ground_moment_2_my	ground_moment_2_mz	ground_force_3_vx	ground_force_3_vy	ground_force_3_vz	ground_force_3_px	ground_force_3_py	ground_force_3_pz	ground_moment_3_mx	ground_moment_3_my	ground_moment_3_mz
        0.6170000000	       13.7268905983	      440.2520258892	       -1.1166442999	        0.1988394955	        0.0000558755	       -0.3004071329	      -96.2146391638	        6.4777808633	      -12.1400572212	        0.0000000000	        0.0000000000	        0.0000000000	        0.2029003516	       -0.0000795827	        0.4543649445	       -0.0000000000	       -0.0000000000	        0.0000000000	        0.0000000000	        0.0000000000	        0.0000000000	        0.2076431971	        0.0000770316	        1.3583900146	        0.0000000000	        0.0000000000	       -0.0000000000	
        0.6180000000	       13.7827366215	      440.8596063762	       -1.0410783700	        0.1988394955	        0.0000558755	       -0.3004071329	      -96.6648254701	        6.5328996868	      -12.1538836910	        0.0000000000	        0.0000000000	        0.0000000000	        0.2029003516	       -0.0000795827	        0.4543649445	       -0.0000000000	       -0.0000000000	        0.0000000000	        0.0000000000	        0.0000000000	        0.0000000000	        0.2076431971	        0.0000770316	        1.3583900146	        0.0000000000	       -0.0000000000	       -0.0000000000	
        0.6190000000	       13.8386463970	      441.5427970292	       -0.9690507840	        0.1988394955	        0.0000558755	       -0.3004071329	      -97.1323189022	        6.5883844418	      -12.1719979158	        0.0000000000	        0.0000000000	        0.0000000000	        0.2029003516	       -0.0000795827	        0.4543649445	       -0.0000000000	       -0.0000000000	        0.0000000000	        0.0000000000	        0.0000000000	       -0.0000000000	        0.2076431971	        0.0000770316	        1.3583900146	        0.0000000000	       -0.0000000000	       -0.0000000000	
        0.6200000000	       13.8924078343	      442.3023858323	       -0.9001846858	        0.1988394955	        0.0000558755	       -0.3004071329	      -97.6177232305	        6.6439246222	      -12.1943599205	       -0.0000000000	        0.0000000000	       -0.0000000000	        0.2029003516	       -0.0000795827	        0.4543649445	       -0.0000000000	       -0.0000000000	        0.0000000000	        0.0000000000	        0.0000000000	       -0.0000000000	        0.2076431971	        0.0000770316	        1.3583900146	        0.0000000000	       -0.0000000000	       -0.0000000000	
        0.6210000000	       13.9420858126	      443.1364184277	       -0.8334868465	        0.1988394955	        0.0000558755	       -0.3004071329	      -98.1212690886	        6.6992030000	      -12.2207468023	       -0.0000000000	        0.0000000000	       -0.0000000000	        0.2029003516	       -0.0000795827	        0.4543649445	       -0.0000000000	        0.0000000000	        0.0000000000	        0.0000000000	        0.0000000000	       -0.0000000000	        0.2076431971	        0.0000770316	        1.3583900146	       -0.0000000000	       -0.0000000000	        0.0000000000	
        0.6220000000	       13.9864453986	      444.0410503099	       -0.7676258555	        0.1988394955	        0.0000558755	       -0.3004071329	      -98.6431562036	        6.7538956583	      -12.2508608205	       -0.0000000000	        0.0000000000	       -0.0000000000	        0.2029003516	       -0.0000795827	        0.4543649445	        0.0000000000	        0.0000000000	       -0.0000000000	        0.0000000000	        0.0000000000	       -0.0000000000	        0.2076431971	        0.0000770316	        1.3583900146	       -0.0000000000	       -0.0000000000	        0.0000000000	
        0.6230000000	       14.0252681000	      445.0125079423	       -0.7012626294	        0.1988394955	        0.0000558755	       -0.3004071329	      -99.1835680711	        6.8077005933	      -12.2844409501	       -0.0000000000	        0.0000000000	       -0.0000000000	        0.2029003516	       -0.0000795827	        0.4543649445	        0.0000000000	        0.0000000000	       -0.0000000000	        0.0000000000	        0.0000000000	       -0.0000000000	        0.2076431971	        0.0000770316	        1.3583900146	       -0.0000000000	       -0.0000000000	        0.0000000000	
        0.6240000000	       14.0590905439	      446.0495357096	       -0.6334694073	        0.1988394955	        0.0000558755	       -0.3004071329	      -99.7424531894	        6.8603899024	      -12.3213407612	       -0.0000000000	        0.0000000000	       -0.0000000000	        0.2029003516	       -0.0000795827	        0.4543649445	        0.0000000000	        0.0000000000	       -0.0000000000	        0.0000000000	        0.0000000000	       -0.0000000000	        0.2076431971	        0.0000770316	        1.3583900146	       -0.0000000000	       -0.0000000000	        0.0000000000	
        0.6250000000	       14.0886564792	      447.1546814072	       -0.5639559760	        0.1988394955	        0.0000558755	       -0.3004071329	     -100.3193899474	        6.9118668048	      -12.3614327574	       -0.0000000000	        0.0000000000	       -0.0000000000	        0.2029003516	       -0.0000795827	        0.4543649445	        0.0000000000	        0.0000000000	       -0.0000000000	        0.0000000000	        0.0000000000	       -0.0000000000	        0.2076431971	        0.0000770316	        1.3583900146	       -0.0000000000	       -0.0000000000	        0.0000000000	
        0.6260000000	       14.1144014471	      448.3330175556	       -0.4927560707	        0.1988394955	        0.0000558755	       -0.3004071329	     -100.9135997587	        6.9622084238	      -12.4044033454	       -0.0000000000	        0.0000000000	       -0.0000000000	        0.2029003516	       -0.0000795827	        0.4543649445	        0.0000000000	        0.0000000000	       -0.0000000000	        0.0000000000	        0.0000000000	       -0.0000000000	        0.2076431971	        0.0000770316	        1.3583900146	       -0.0000000000	       -0.0000000000	        0.0000000000	
        0.6270000000	       14.1361240460	      449.5894383627	       -0.4196665781	        0.1988394955	        0.0000558755	       -0.3004071329	     -101.5240801756	        7.0116947391	      -12.4496554548	       -0.0000000000	        0.0000000000	       -0.0000000000	        0.2029003516	       -0.0000795827	        0.4543649445	        0.0000000000	        0.0000000000	       -0.0000000000	       -0.0000000000	        0.0000000000	       -0.0000000000	        0.2076431971	        0.0000770316	        1.3583900146	       -0.0000000000	       -0.0000000000	        0.0000000000	
        0.6280000000	       14.1530599448	      450.9265566665	       -0.3441167903	        0.1988394955	        0.0000558755	       -0.3004071329	     -102.1497191800	        7.0607896429	      -12.4963723690	       -0.0000000000	        0.0000000000	       -0.0000000000	        0.2029003516	       -0.0000795827	        0.4543649445	        0.0000000000	        0.0000000000	       -0.0000000000	       -0.0000000000	        0.0000000000	       -0.0000000000	        0.2076431971	        0.0000770316	        1.3583900146	       -0.0000000000	       -0.0000000000	        0.0000000000	
        0.6290000000	       14.1641998904	      452.3439457026	       -0.2655007003	        0.1988394955	        0.0000558755	       -0.3004071329	     -102.7893641936	        7.1099918760	      -12.5437461826	       -0.0000000000	        0.0000000000	       -0.0000000000	        0.2029003516	       -0.0000795827	        0.4543649445	        0.0000000000	        0.0000000000	       -0.0000000000	       -0.0000000000	        0.0000000000	       -0.0000000000	        0.2076431971	        0.0000770316	        1.3583900146	       -0.0000000000	       -0.0000000000	        0.0000000000	
        0.6300000000	       14.1687308805	      453.8382013295	       -0.1834923456	        0.1988394955	        0.0000558755	       -0.3004071329	     -103.4419309571	        7.1596208034	      -12.5912477656	       -0.0000000000	        0.0000000000	       -0.0000000000	        0.2029003516	       -0.0000795827	        0.4543649445	        0.0000000000	        0.0000000000	       -0.0000000000	       -0.0000000000	        0.0000000000	       -0.0000000000	        0.2076431971	        0.0000770316	        1.3583900146	       -0.0000000000	       -0.0000000000	        0.0000000000	
        0.6310000000	       14.1664166115	      455.4033155021	       -0.0979604297	        0.1988394955	        0.0000558755	       -0.3004071329	     -104.1064779407	        7.2097567355	      -12.6386890649	       -0.0000000000	        0.0000000000	       -0.0000000000	        0.2029003516	       -0.0000795827	        0.4543649445	        0.0000000000	        0.0000000000	       -0.0000000000	       -0.0000000000	        0.0000000000	       -0.0000000000	        0.2076431971	        0.0000770316	        1.3583900146	       -0.0000000000	       -0.0000000000	        0.0000000000	
